HIERARCHY
ROOT root     
{
	OFFSET 0.0000 0.0000 0.0000
	CHANNELS 6 Xposition Yposition Zposition Zrotation Yrotation Xrotation
	JOINT pelvis   
	{
		OFFSET 0.0000 0.0000 0.0000
		CHANNELS 3 Zrotation Yrotation Xrotation
		JOINT thorax   
		{
			OFFSET 0.0000 23.0750 -5.0000
			CHANNELS 3 Zrotation Yrotation Xrotation
			JOINT rclavicle
			{
				OFFSET 0.0000 28.0009 0.0000
				CHANNELS 3 Zrotation Yrotation Xrotation
				JOINT rhumerus 
				{
					OFFSET -18.5725 5.5939 0.0000
					CHANNELS 3 Zrotation Yrotation Xrotation
					JOINT rradius  
					{
						OFFSET -24.8459 0.0000 0.0000
						CHANNELS 3 Zrotation Yrotation Xrotation
						JOINT rhand    
						{
							OFFSET -24.5477 0.0000 0.0000
							CHANNELS 3 Zrotation Yrotation Xrotation
							End Site
							{
								OFFSET -8.1826 0.0000 0.0000
							}
						}
					}
				}
			}
			JOINT lclavicle
			{
				OFFSET 0.0000 28.0009 0.0000
				CHANNELS 3 Zrotation Yrotation Xrotation
				JOINT lhumerus 
				{
					OFFSET 18.5725 5.5939 0.0000
					CHANNELS 3 Zrotation Yrotation Xrotation
					JOINT lradius  
					{
						OFFSET 24.8459 0.0000 0.0000
						CHANNELS 3 Zrotation Yrotation Xrotation
						JOINT lhand    
						{
							OFFSET 24.5477 0.0000 0.0000
							CHANNELS 3 Zrotation Yrotation Xrotation
							End Site
							{
								OFFSET 8.1826 0.0000 0.0000
							}
						}
					}
				}
			}
			JOINT head     
			{
				OFFSET 0.0000 35.2030 0.0000
				CHANNELS 3 Zrotation Yrotation Xrotation
				End Site
				{
					OFFSET 0.0000 11.7343 0.0000
				}
			}
		}
		JOINT rfemur   
		{
			OFFSET -8.2817 0.0000 0.0000
			CHANNELS 3 Zrotation Yrotation Xrotation
			JOINT rtibia   
			{
				OFFSET 0.0000 -43.3627 0.0000
				CHANNELS 3 Zrotation Yrotation Xrotation
				JOINT rfoot    
				{
					OFFSET 0.0000 -38.2947 0.0000
					CHANNELS 3 Zrotation Yrotation Xrotation
					JOINT rtoes    
					{
						OFFSET 0.0000 0.0000 16.6054
						CHANNELS 3 Zrotation Yrotation Xrotation
						End Site
						{
							OFFSET 0.0000 0.0000 5.5351
						}
					}
				}
			}
		}
		JOINT lfemur   
		{
			OFFSET 8.2817 0.0000 0.0000
			CHANNELS 3 Zrotation Yrotation Xrotation
			JOINT ltibia   
			{
				OFFSET 0.0000 -43.3627 0.0000
				CHANNELS 3 Zrotation Yrotation Xrotation
				JOINT lfoot    
				{
					OFFSET 0.0000 -38.2947 0.0000
					CHANNELS 3 Zrotation Yrotation Xrotation
					JOINT ltoes    
					{
						OFFSET 0.0000 0.0000 16.6054
						CHANNELS 3 Zrotation Yrotation Xrotation
						End Site
						{
							OFFSET 0.0000 0.0000 5.5351
						}
					}
				}
			}
		}
	}
}
MOTION
Frames: 9
Frame Time: .0333333
90.977 79.367 16.439 48.0261 -86.5402 -0.89921 0 -0 0 -0.945388 -6.81821 6.96014 18.6324 -3.17939 -1.42859e-05 60.2525 32.2509 3.7088 -0 33.5399 -0 -13.9218 14.1042 -1.73069 -12.3713 1.49868 4.14372e-06 -49.9615 -22.3534 4.38963 0 -50.007 0 12.6096 -5.02666 -0.555683 -0.495099 -4.56486 -22.351 2.2678 -11.9394 -57.7453 -0 -0 51.7123 -2.18152e-05 -8.39944 -11.9888 1.75681 -2.5463e-05 -72.7629 -3.15119 6.98422 -60.6827 -0 -0 54.326 3.31181e-06 13.0928 -10.493 -2.4254 1.64634e-05 -64.9724 
89.792 80.426 16.401 48.891 -86.4791 -2.97696 0 -0 0 -1.22852 -6.8113 6.98217 18.0951 -3.24117 -1.83957e-05 60.225 33.4969 5.31812 -0 35.6838 -0 -14.3862 13.9047 -1.76337 -11.6493 1.12431 1.90979e-06 -50.0479 -23.4293 4.48657 4.3469e-07 -52.2764 -8.8581e-07 13.1671 -5.25627 -0.607014 -0.448567 -4.75319 -20.5956 2.05691 -12.456 -55.1704 -0 -0 49.8283 -6.24634e-06 -7.53803 -8.56326 1.1288 1.0665e-06 -76.3162 -2.95054 7.15316 -58.0936 -0 -0 52.4432 1.44517e-05 12.5859 -7.29655 -1.62427 2.34755e-05 -68.0949 
88.615 81.532 16.36 49.427 -86.415 -4.69038 0 -0 0 -1.48532 -6.81118 7.1351 17.5942 -3.30703 1.00322e-06 60.0299 34.7561 6.79497 -0 37.8986 -0 -14.8668 13.6821 -1.7935 -10.9814 0.724798 7.00204e-07 -50.03 -24.3786 4.46144 0 -54.7238 0 13.7069 -5.48048 -0.659177 -0.37688 -4.92264 -18.9925 1.87802 -13.0395 -52.833 -0 -0 48.2038 3.80845e-06 -6.6029 -4.68436 0.541601 -1.73732e-06 -79.8511 -2.74542 7.35159 -55.7122 -0 -0 50.7502 1.71131e-05 12.0801 -3.64291 -0.779113 8.04158e-06 -71.1292 
87.456 82.674 16.315 49.5814 -86.378 -5.97591 0 -0 0 -1.70895 -6.81338 7.39852 17.1372 -3.38748 9.3771e-06 59.6558 36.045 8.12794 -0 40.1758 -0 -15.3433 13.4481 -1.81966 -10.3701 0.3459 -1.99304e-07 -49.9026 -25.2631 4.34133 0 -57.3099 0 14.1904 -5.69717 -0.709695 -0.276204 -5.06521 -17.5548 1.74503 -13.6849 -50.7835 -0 -0 46.859 -4.54096e-07 -5.61762 -0.462396 0.0454997 -2.66655e-07 -83.0788 -2.54691 7.60026 -53.5888 -0 -0 49.2784 7.19535e-07 11.5971 0.380199 0.0780011 -2.83087e-07 -73.7416 
86.33 83.84 16.263 49.4034 -86.3324 -6.81964 0 -0 0 -1.8952 -6.81612 7.7202 16.7182 -3.48818 8.174e-08 59.1067 37.3486 9.28372 -0 42.5263 -0 -15.7864 13.2043 -1.83863 -9.78896 0.0299004 -8.59334e-08 -49.7087 -26.1386 4.15424 0 -59.9661 0 14.5753 -5.93014 -0.758993 -0.140597 -5.17679 -16.2833 1.66944 -14.3831 -49.0771 -0 -0 45.7984 6.96342e-07 -4.60505 3.96513 -0.319102 -2.58289e-06 -85.7461 -2.36478 7.90467 -51.7816 -0 -0 48.0414 5.91273e-06 11.1612 4.66097 0.918507 -3.96372e-06 -75.6895 
85.244 85.017 16.203 48.8685 -86.3138 -7.20493 0 -0 0 -2.03513 -6.82279 8.09307 16.3191 -3.58693 -1.72568e-05 58.3862 38.6628 10.2311 -0 44.9291 -0 -16.184 12.9878 -1.85437 -9.25752 -0.2415 3.26378e-07 -49.4035 -26.9722 3.86434 0 -62.7314 0 14.8281 -6.13347 -0.798888 0.0229912 -5.24203 -15.1876 1.65495 -15.1101 -47.7226 -0 -0 45.0127 -2.86794e-06 -3.60643 8.41769 -0.528603 8.52561e-07 -87.5424 -2.2095 8.28222 -50.3031 -0 -0 47.0428 -7.63919e-06 10.8004 9.03508 1.71588 -2.98132e-05 -76.6181 
84.208 86.189 16.136 48.0401 -86.3385 -7.18373 0 -0 0 -2.13196 -6.83053 8.47833 15.9212 -3.68276 -9.38733e-07 57.5078 39.9647 10.9385 -0 47.3881 -0 -16.5221 12.8088 -1.86733 -8.75342 -0.444999 -7.81618e-07 -49.0199 -27.7998 3.48704 7.90071e-07 -65.5627 -1.22685e-06 14.9303 -6.30963 -0.827623 0.217169 -5.25991 -14.264 1.70386 -15.842 -46.739 -0 -0 44.4844 -7.93372e-07 -2.66943 12.7067 -0.587603 4.88733e-07 -88.4117 -2.09197 8.72791 -49.1771 -0 -0 46.2737 -1.83362e-05 10.5505 13.3273 2.45839 -3.54775e-05 -76.4252 
83.23 87.344 16.063 47.0422 -86.3743 -6.84038 0 -0 0 -2.18973 -6.83878 8.84805 15.4991 -3.77045 2.34568e-05 56.4914 41.2317 11.3814 -3.95431e-07 49.9041 -8.49858e-07 -16.7972 12.6697 -1.87811 -8.25947 -0.575095 -3.91397e-07 -48.5728 -28.6284 3.01976 6.53177e-07 -68.4371 -9.60456e-07 14.8756 -6.44758 -0.842633 0.44127 -5.2291 -13.5103 1.81608 -16.5504 -46.1321 -0 -0 44.188 1.52379e-05 -1.84934 16.6422 -0.529794 -2.835e-06 -88.4005 -2.02386 9.23099 -48.4095 -0 -0 45.723 -2.14883e-05 10.4481 17.3509 3.14768 -5.7541e-05 -75.1194 
82.316 88.467 15.984 45.9097 -86.4284 -6.2078 0 -0 0 -2.21455 -6.84645 9.179 15.0299 -3.84724 -7.64795e-06 55.3584 42.4406 11.5419 -4.38265e-07 52.4796 -8.89109e-07 -17.008 12.5682 -1.88658 -7.75576 -0.6288 -2.84887e-07 -48.084 -29.4623 2.46319 0 -71.3385 0 14.6767 -6.53933 -0.843033 0.692919 -5.15304 -12.9184 1.99104 -17.2104 -45.8983 -0 -0 44.1011 -1.07909e-05 -1.20212 20.0597 -0.412403 -6.37358e-07 -87.6837 -2.0164 9.77299 -48.0034 -0 -0 45.3737 3.99825e-05 10.5252 20.936 3.79814 -4.62698e-05 -72.8755 
